# Blender v2.92.0 OBJ File: ''
# www.blender.org
mtllib chair.mtl
o Cube_Cube.001
v -0.933747 0.139556 0.466874
v -0.933747 -0.139556 0.466874
v -0.933747 -0.139556 0.933747
v -0.933747 0.139556 0.933747
v 0.466874 0.139556 0.933747
v 0.466874 -0.139556 0.933747
v 0.933747 -0.139556 0.933747
v 0.933747 0.139556 0.933747
v 0.933747 0.139556 -0.466874
v 0.933747 -0.139556 -0.466874
v 0.933747 -0.139556 -0.933747
v 0.933747 0.139556 -0.933747
v -0.466874 0.139556 -0.933747
v -0.466874 -0.139556 -0.933747
v -0.933747 -0.139556 -0.933747
v -0.933747 0.139556 -0.933747
v 0.933747 0.139556 0.466874
v 0.933747 1.315156 0.466875
v 0.933747 1.315156 0.933748
v 0.466874 -1.304066 -0.466875
v 0.466874 -1.304065 -0.933748
v 0.466874 -1.692235 -0.933748
v 0.466874 -1.692236 -0.466875
v -0.466874 -0.139556 0.466874
v -0.933747 -0.139556 -0.000000
v -0.466874 -0.139556 -0.000000
v 0.466874 0.139556 0.466874
v 0.933747 0.139556 0.000000
v 0.466874 0.139556 0.000000
v 0.933747 -0.139556 0.466874
v 0.933747 -0.139556 -0.000000
v -0.933747 0.139556 -0.466874
v -0.933747 -0.139556 -0.466874
v -0.933747 0.139556 0.000000
v -0.466874 0.139556 0.466874
v 0.000000 0.139556 0.466874
v 0.000000 0.139556 0.000000
v -0.466874 0.139556 0.000000
v 0.466874 -0.139556 0.466874
v 0.000000 -0.139556 0.466874
v 0.000000 -0.139556 -0.000000
v 0.466874 -0.139556 -0.000000
v 0.466874 -0.139556 -0.466874
v 0.000000 -0.139556 -0.466874
v 0.000000 -0.139556 -0.933747
v 0.466874 -0.139556 -0.933747
v -0.466874 0.139556 -0.466874
v 0.000000 0.139556 -0.466874
v 0.000000 0.139556 -0.933747
v 0.466874 0.139556 -0.933747
v -0.466874 0.139556 0.933747
v -0.466874 -0.139556 0.933747
v 0.000000 -0.139556 0.933747
v 0.000000 0.139556 0.933747
v -0.933747 1.315156 -0.933746
v -0.466874 1.315156 -0.933746
v -0.466874 -0.139556 -0.466874
v 0.466874 0.139556 -0.466874
v 0.933747 -1.304066 -0.466875
v 0.933747 -1.692236 -0.466875
v 0.933747 1.315156 -0.466873
v 0.466874 1.315156 -0.466873
v -0.466874 1.315156 -0.466873
v -0.933747 1.315156 -0.466873
v 0.933747 1.315156 -0.933746
v 0.466874 1.315156 -0.933746
v 0.466874 1.315156 0.933748
v 0.466874 1.315156 0.466875
v -0.933747 1.315156 0.933748
v -0.466874 1.315156 0.933748
v -0.466874 1.315156 0.466875
v -0.933747 1.315156 0.466875
v -0.466874 -1.692236 -0.466875
v -0.933747 -1.692236 -0.466875
v -0.933747 -1.692235 -0.933748
v -0.466874 -1.692235 -0.933748
v 0.933747 -1.692235 -0.933748
v 0.933747 -1.304065 -0.933748
v -0.466874 -1.304066 -0.466875
v -0.933747 -1.304066 -0.466875
v -0.466874 -1.304065 -0.933748
v -0.933747 -1.304065 -0.933748
v 0.933747 -0.527726 -0.933747
v 0.933747 -0.527726 -0.466874
v 0.933747 -0.915896 -0.466874
v 0.933747 -0.915896 -0.933747
v 0.466874 -0.527726 -0.933747
v 0.466874 -0.915896 -0.933747
v 0.466874 -0.527726 -0.466874
v 0.466874 -0.915896 -0.466874
v -0.933747 -0.527726 -0.933747
v -0.466874 -0.527726 -0.933747
v -0.466874 -0.915896 -0.933747
v -0.933747 -0.915896 -0.933747
v -0.933747 -0.527726 -0.466874
v -0.933747 -0.915896 -0.466874
v -0.466874 -0.527726 -0.466874
v -0.466874 -0.915896 -0.466874
v -0.472116 -1.304065 -0.933748
v -0.472116 -0.915896 -0.933747
v -0.472116 -0.915896 -0.466874
v -0.472116 -1.304066 -0.466875
vn -1.0000 -0.0000 0.0000
vn 0.0000 -0.0000 1.0000
vn 1.0000 0.0000 0.0000
vn 0.0000 0.0000 -1.0000
vn 0.0000 -1.0000 -0.0000
vn 0.0000 1.0000 0.0000
usemtl Default_OBJ
s off
f 1//1 2//1 3//1 4//1
f 5//2 6//2 7//2 8//2
f 9//3 10//3 11//3 12//3
f 13//4 14//4 15//4 16//4
f 8//3 17//3 18//3 19//3
f 20//1 21//1 22//1 23//1
f 24//5 2//5 25//5 26//5
f 27//6 17//6 28//6 29//6
f 17//3 30//3 31//3 28//3
f 32//1 33//1 25//1 34//1
f 35//6 36//6 37//6 38//6
f 39//5 40//5 41//5 42//5
f 43//5 44//5 45//5 46//5
f 47//6 48//6 49//6 13//6
f 50//4 46//4 45//4 49//4
f 51//2 52//2 53//2 54//2
f 6//5 53//5 40//5 39//5
f 51//6 54//6 36//6 35//6
f 8//3 7//3 30//3 17//3
f 13//4 16//4 55//4 56//4
f 52//5 3//5 2//5 24//5
f 34//1 25//1 2//1 1//1
f 38//6 37//6 48//6 47//6
f 42//5 41//5 44//5 43//5
f 16//1 15//1 33//1 32//1
f 26//5 25//5 33//5 57//5
f 29//6 28//6 9//6 58//6
f 28//3 31//3 10//3 9//3
f 37//6 29//6 58//6 48//6
f 31//5 42//5 43//5 10//5
f 54//6 5//6 27//6 36//6
f 7//5 6//5 39//5 30//5
f 12//4 11//4 46//4 50//4
f 59//2 20//2 23//2 60//2
f 30//5 39//5 42//5 31//5
f 36//6 27//6 29//6 37//6
f 48//6 58//6 50//6 49//6
f 54//2 53//2 6//2 5//2
f 41//5 26//5 57//5 44//5
f 34//6 38//6 47//6 32//6
f 53//5 52//5 24//5 40//5
f 58//2 9//2 61//2 62//2
f 4//2 3//2 52//2 51//2
f 32//2 47//2 63//2 64//2
f 1//6 35//6 38//6 34//6
f 40//5 24//5 26//5 41//5
f 44//5 57//5 14//5 45//5
f 49//4 45//4 14//4 13//4
f 62//6 61//6 65//6 66//6
f 67//6 19//6 18//6 68//6
f 69//6 70//6 71//6 72//6
f 64//6 63//6 56//6 55//6
f 5//2 8//2 19//2 67//2
f 50//1 58//1 62//1 66//1
f 16//1 32//1 64//1 55//1
f 51//3 35//3 71//3 70//3
f 27//1 5//1 67//1 68//1
f 35//4 1//4 72//4 71//4
f 47//3 13//3 56//3 63//3
f 9//3 12//3 65//3 61//3
f 12//4 50//4 66//4 65//4
f 17//4 27//4 68//4 18//4
f 4//2 51//2 70//2 69//2
f 1//1 4//1 69//1 72//1
f 73//5 74//5 75//5 76//5
f 60//5 23//5 22//5 77//5
f 21//4 78//4 77//4 22//4
f 79//2 80//2 74//2 73//2
f 78//3 59//3 60//3 77//3
f 81//3 79//3 73//3 76//3
f 80//1 82//1 75//1 74//1
f 82//4 81//4 76//4 75//4
f 83//3 84//3 85//3 86//3
f 87//4 83//4 86//4 88//4
f 84//2 89//2 90//2 85//2
f 89//1 87//1 88//1 90//1
f 91//4 92//4 93//4 94//4
f 95//1 91//1 94//1 96//1
f 92//3 97//3 98//3 93//3
f 97//2 95//2 96//2 98//2
f 86//3 85//3 59//3 78//3
f 88//4 86//4 78//4 21//4
f 85//2 90//2 20//2 59//2
f 88//4 21//4 99//4 100//4
f 43//1 46//1 87//1 89//1
f 10//2 43//2 89//2 84//2
f 46//4 11//4 83//4 87//4
f 11//3 10//3 84//3 83//3
f 57//2 33//2 95//2 97//2
f 14//3 57//3 97//3 92//3
f 33//1 15//1 91//1 95//1
f 15//4 14//4 92//4 91//4
f 94//4 93//4 81//4 82//4
f 96//1 94//1 82//1 80//1
f 93//3 98//3 79//3 81//3
f 98//2 96//2 80//2 79//2
f 101//1 100//1 99//1 102//1
f 90//6 88//6 100//6 101//6
f 20//2 90//2 101//2 102//2
f 21//5 20//5 102//5 99//5
